<svg xmlns="http://www.w3.org/2000/svg" viewBox="0 0 1122 1122"><defs><style>.cls-1{fill:#ccc;}.cls-2{fill:#d9e2ed;}.cls-3{fill:#f4f4f6;}.cls-4{fill:#999;}.cls-5{fill:#09c;}.cls-6,.cls-7{fill:#c36;}.cls-6{opacity:0.5;}.cls-8{fill:#ff9675;}</style></defs><g id="object"><rect class="cls-1" x="243.21" y="321.09" width="635.59" height="436.68" rx="29.36"/><rect class="cls-2" x="271.23" y="357.71" width="579.53" height="363.45"/><circle class="cls-3" cx="561" cy="339.22" r="7.93"/><path class="cls-4" d="M195,757.78H927a0,0,0,0,1,0,0v16.45a26.67,26.67,0,0,1-26.67,26.67H221.67A26.67,26.67,0,0,1,195,774.23V757.78A0,0,0,0,1,195,757.78Z"/><path class="cls-3" d="M507.18,757.78H614.82a0,0,0,0,1,0,0v6.43a5.35,5.35,0,0,1-5.35,5.35h-97a5.35,5.35,0,0,1-5.35-5.35v-6.43A0,0,0,0,1,507.18,757.78Z"/><rect class="cls-5" x="271.23" y="357.71" width="579.53" height="37.39"/><rect class="cls-3" x="494.1" y="438.45" width="154.87" height="95.8"/><rect class="cls-3" x="673.79" y="438.45" width="154.87" height="95.8"/><rect class="cls-3" x="293.33" y="438.45" width="178.67" height="245.1"/><rect class="cls-3" x="494.1" y="556.5" width="334.57" height="25.33"/><rect class="cls-3" x="494.1" y="604.73" width="334.57" height="25.33"/><polygon class="cls-6" points="356.62 600.24 404.29 541.58 452 600.29 356.62 600.24"/><polygon class="cls-7" points="313.33 600.23 369.56 531.04 425.84 600.29 313.33 600.23"/><circle class="cls-8" cx="390.64" cy="531.04" r="9.33"/></g></svg>